<svg width="23" height="24" viewBox="0 0 23 24" fill="none" xmlns="http://www.w3.org/2000/svg">
<path d="M11.5001 16.6295C14.0568 16.6295 16.1296 14.5568 16.1296 12C16.1296 9.44319 14.0568 7.37049 11.5001 7.37049C8.94325 7.37049 6.87054 9.44319 6.87054 12C6.87054 14.5568 8.94325 16.6295 11.5001 16.6295Z" stroke="#616A4A" stroke-width="1.73607" stroke-linecap="round" stroke-linejoin="round"/>
<path d="M1.08362 16.6295V7.37049C1.08362 4.17448 3.6745 1.5836 6.87051 1.5836H16.1295C19.3255 1.5836 21.9164 4.17448 21.9164 7.37049V16.6295C21.9164 19.8255 19.3255 22.4164 16.1295 22.4164H6.87051C3.6745 22.4164 1.08362 19.8255 1.08362 16.6295Z" stroke="#616A4A" stroke-width="1.73607"/>
<path d="M17.8657 5.64601L17.8772 5.63315" stroke="#616A4A" stroke-width="1.73607" stroke-linecap="round" stroke-linejoin="round"/>
</svg>
