<svg width="29" height="24" viewBox="0 0 29 24" fill="none" xmlns="http://www.w3.org/2000/svg">
<path d="M27.5431 1.37371C27.5431 1.37371 25.1504 2.78723 23.8199 3.18788C23.1058 2.36677 22.1567 1.78479 21.101 1.52065C20.0454 1.25651 18.9341 1.32295 17.9175 1.71099C16.9008 2.09903 16.0278 2.78995 15.4166 3.69028C14.8054 4.59063 14.4855 5.65696 14.5001 6.74507V7.9308C12.4163 7.98483 10.3515 7.52269 8.48962 6.58552C6.6277 5.64835 5.02646 4.26527 3.82849 2.55944C3.82849 2.55944 -0.914433 13.2311 9.75715 17.974C7.31517 19.6315 4.40613 20.4627 1.45703 20.3455C12.1286 26.2741 25.1717 20.3455 25.1717 6.7095C25.1706 6.37922 25.1388 6.04975 25.0768 5.72534C26.287 4.53189 27.5431 1.37371 27.5431 1.37371Z" stroke="#616A4A" stroke-width="1.7786" stroke-linecap="round" stroke-linejoin="round"/>
</svg>
