<svg version="1.1" id="Layer_1" xmlns="http://www.w3.org/2000/svg" xmlns:xlink="http://www.w3.org/1999/xlink" x="0px" y="0px"
	 width="100%" viewBox="0 0 720 448" enable-background="new 0 0 720 448" xml:space="preserve">
<path fill="#000000" opacity="1.000000" stroke="none" 
	d="
M541.000000,416.301392 
	C511.667084,416.303680 482.833832,416.234955 454.001709,416.384583 
	C450.051636,416.405060 447.649078,415.038422 445.317230,411.911743 
	C411.346527,366.361969 377.252441,320.904175 343.178619,275.431335 
	C342.197937,274.122559 341.370789,272.630768 339.077606,271.563934 
	C336.001862,274.809998 332.793884,278.127411 329.659943,281.513367 
	C289.485870,324.918152 249.292099,368.304810 209.215805,411.799713 
	C206.116211,415.163727 202.901733,416.559540 198.347519,416.403351 
	C189.235382,416.090820 180.105011,416.310669 171.094910,416.310669 
	C170.335739,413.380737 172.351501,412.494904 173.491776,411.261444 
	C201.313065,381.164734 229.168976,351.100006 257.030090,321.040131 
	C277.643555,298.799896 298.166473,276.473816 318.993317,254.435104 
	C322.766327,250.442566 322.826874,247.811325 319.589142,243.524567 
	C290.967133,205.629227 262.545135,167.582764 234.077698,129.570740 
	C214.003082,102.765495 193.946320,75.946884 173.896957,49.122742 
	C172.925140,47.822544 171.590134,46.678703 171.609711,44.717850 
	C172.982910,43.013817 174.956268,43.723324 176.650482,43.721268 
	C212.483292,43.677765 248.316315,43.737736 284.148834,43.627827 
	C287.858429,43.616444 290.312653,44.774128 292.539154,47.763660 
	C322.994690,88.656776 353.558960,129.468903 384.072723,170.318695 
	C389.845856,178.047379 389.683502,177.977127 396.094330,171.027939 
	C424.336578,140.414078 452.643250,109.859650 480.942841,79.298698 
	C490.903931,68.541618 500.955444,57.867912 510.863098,47.062061 
	C513.053589,44.672985 515.380615,43.545036 518.692566,43.624207 
	C527.021057,43.823296 535.357544,43.667870 543.690552,43.714600 
	C545.124268,43.722641 546.693054,43.281536 548.248047,44.710381 
	C546.382996,48.584656 543.046570,51.387985 540.207031,54.453262 
	C503.862305,93.686996 467.404694,132.816177 430.994781,171.989548 
	C423.622314,179.921570 416.429840,188.023697 408.941315,195.843384 
	C406.480438,198.413132 406.410278,200.214935 408.544525,203.053406 
	C434.378540,237.411499 460.098511,271.855316 485.843994,306.279938 
	C511.890228,341.106750 537.936340,375.933655 563.957275,410.779419 
	C564.931458,412.084076 566.247375,413.238953 566.572937,416.299286 
	C558.150879,416.299286 549.825439,416.299286 541.000000,416.301392 
M288.062103,86.396080 
	C284.966278,82.265327 281.784760,78.195145 278.806824,73.981102 
	C277.020691,71.453598 274.915527,70.256073 271.714691,70.285210 
	C257.723358,70.412560 243.730148,70.324486 229.737686,70.353302 
	C228.136398,70.356606 226.350189,69.956337 224.884903,72.043633 
	C228.321991,78.483711 233.375900,84.034019 237.797165,89.970680 
	C266.942963,129.106293 296.266022,168.109833 325.497101,207.181992 
	C370.093536,266.792511 414.672882,326.415863 459.205872,386.073792 
	C461.060883,388.558838 463.050018,389.813995 466.259308,389.781525 
	C480.417084,389.638367 494.576996,389.725708 508.735931,389.670135 
	C510.289520,389.664032 512.081238,390.181458 513.761536,387.923401 
	C438.728546,287.693329 363.601685,187.337875 288.062103,86.396080 
z"/>
</svg>